<?xml version="1.0" standalone="no"?>
<!DOCTYPE svg PUBLIC "-//W3C//DTD SVG 20010904//EN"
 "http://www.w3.org/TR/2001/REC-SVG-20010904/DTD/svg10.dtd">
<svg version="1.0" xmlns="http://www.w3.org/2000/svg"
 width="300.000000pt" height="200.000000pt" viewBox="0 0 300.000000 200.000000"
 preserveAspectRatio="xMidYMid meet">
<metadata>
Created by potrace 1.10, written by Peter Selinger 2001-2011
</metadata>
<g transform="translate(0.000000,200.000000) scale(0.100000,-0.100000)"
fill="#000000" stroke="none">
<path d="M374 1407 c-2 -7 -3 -69 -2 -138 l3 -124 25 0 c25 0 25 0 28 108 l3
109 218 -4 c211 -3 219 -4 253 -27 69 -47 99 -123 84 -206 -8 -42 -64 -108
-104 -123 -15 -6 -91 -12 -168 -14 -150 -5 -174 -11 -216 -62 -27 -33 -40
-113 -37 -223 4 -109 15 -137 47 -117 14 10 17 31 20 147 l3 136 30 25 c29 25
36 26 162 26 118 0 137 3 182 24 96 45 148 126 147 229 0 109 -66 200 -171
235 -51 18 -500 16 -507 -1z"/>
<path d="M1250 1394 c-50 -27 -86 -73 -101 -128 -13 -48 -4 -76 26 -76 24 0
28 6 40 66 8 39 51 81 96 94 55 16 323 13 364 -4 70 -30 96 -122 53 -186 -15
-22 -97 -82 -242 -175 -122 -79 -224 -152 -232 -166 -22 -40 -17 -78 15 -110
l30 -29 238 2 238 3 0 25 0 25 -226 3 c-182 2 -229 5 -239 17 -7 8 -8 20 -3
29 5 8 101 74 213 146 113 72 221 149 241 171 67 72 71 169 12 248 -47 62 -84
71 -293 71 -179 0 -187 -1 -230 -26z"/>
<path d="M2055 1396 c-86 -39 -151 -138 -143 -217 2 -28 7 -34 27 -34 21 0 26
7 36 50 14 63 27 87 65 119 48 40 93 47 282 44 135 -2 173 -6 173 -16 0 -11
-39 -14 -185 -15 -155 -2 -191 -5 -221 -20 -77 -38 -106 -163 -53 -227 46 -54
69 -60 221 -60 76 0 155 -5 175 -10 72 -20 122 -81 136 -163 7 -36 11 -42 32
-42 20 0 26 6 28 29 10 81 -55 181 -142 222 -47 22 -64 24 -204 24 l-154 0
-29 29 c-37 37 -38 79 -3 120 l26 31 193 0 c179 0 194 1 219 21 35 27 36 86 3
117 -22 21 -32 22 -228 22 -193 0 -207 -1 -254 -24z"/>
<path d="M1304 1316 c-41 -18 -64 -52 -64 -94 0 -30 2 -33 27 -30 18 2 29 10
31 23 8 43 18 45 182 45 243 0 240 -11 -55 -199 -104 -67 -203 -133 -218 -148
-41 -38 -61 -82 -61 -138 0 -66 29 -121 83 -160 l43 -30 251 0 c241 0 252 1
255 19 8 41 -19 46 -263 46 -252 0 -260 2 -290 60 -25 48 -19 104 14 143 17
18 124 94 240 168 169 107 214 141 227 168 21 43 10 86 -29 115 -26 19 -44 21
-185 23 -117 2 -165 -1 -188 -11z"/>
<path d="M776 1304 c-8 -22 11 -44 39 -44 55 0 93 -64 73 -122 -16 -45 -41
-53 -198 -58 -166 -7 -202 -19 -263 -90 -49 -58 -58 -102 -55 -265 l3 -140 25
0 25 0 5 150 c5 164 13 191 70 238 44 38 89 47 225 47 98 0 127 3 155 19 42
22 80 83 80 129 0 46 -35 109 -73 132 -40 25 -102 27 -111 4z"/>
<path d="M2146 978 c-10 -8 -17 -23 -14 -34 3 -17 15 -19 145 -24 133 -5 143
-7 167 -29 38 -36 36 -91 -5 -125 l-31 -26 -206 0 c-222 -1 -232 -3 -251 -53
-13 -34 0 -71 32 -92 20 -13 56 -15 223 -13 l199 3 3 27 c3 24 -1 28 -31 33
-19 4 -109 5 -201 3 -144 -3 -166 -1 -164 12 3 13 38 16 218 20 236 5 244 7
282 69 46 74 17 180 -60 217 -50 25 -277 33 -306 12z"/>
</g>
</svg>
