<?xml version="1.0" standalone="no"?>
<!DOCTYPE svg PUBLIC "-//W3C//DTD SVG 20010904//EN"
 "http://www.w3.org/TR/2001/REC-SVG-20010904/DTD/svg10.dtd">
<svg version="1.0" xmlns="http://www.w3.org/2000/svg"
 width="300.000000pt" height="166.000000pt" viewBox="0 0 300.000000 166.000000"
 preserveAspectRatio="xMidYMid meet">
<metadata>
Created by potrace 1.10, written by Peter Selinger 2001-2011
</metadata>
<g transform="translate(0.000000,166.000000) scale(0.100000,-0.100000)"
fill="#000000" stroke="none">
<path d="M480 1347 c0 -1 85 -126 190 -277 l190 -275 0 -222 0 -223 165 0 165
0 0 224 0 223 173 249 c95 137 181 261 191 277 l18 27 -201 0 -201 0 -104
-157 -105 -156 30 -44 c17 -23 32 -43 34 -43 2 0 47 63 100 140 l96 140 64 0
c36 0 65 -2 65 -5 0 -2 -61 -93 -135 -202 l-135 -198 0 -182 0 -183 -55 0 -55
0 0 186 0 186 -135 195 c-74 107 -135 196 -135 199 0 2 29 4 65 4 l64 0 31
-45 c17 -25 34 -45 38 -45 4 0 20 20 36 45 l28 46 -40 57 -40 57 -201 3 c-111
1 -201 1 -201 -1z"/>
<path d="M1714 1336 c-3 -7 -4 -33 -2 -57 l3 -44 213 -3 212 -2 0 -385 -1
-385 -60 0 -59 0 0 330 0 330 -55 0 -55 0 0 -385 0 -385 165 0 165 0 0 500 0
500 -260 0 c-213 0 -262 -3 -266 -14z"/>
</g>
</svg>
