<?xml version="1.0" standalone="no"?>
<!DOCTYPE svg PUBLIC "-//W3C//DTD SVG 20010904//EN"
 "http://www.w3.org/TR/2001/REC-SVG-20010904/DTD/svg10.dtd">
<svg version="1.0" xmlns="http://www.w3.org/2000/svg"
 width="300.000000pt" height="120.000000pt" viewBox="0 0 300.000000 120.000000"
 preserveAspectRatio="xMidYMid meet">
<metadata>
Created by potrace 1.10, written by Peter Selinger 2001-2011
</metadata>
<g transform="translate(0.000000,120.000000) scale(0.100000,-0.100000)"
fill="#000000" stroke="none">
<path d="M1112 953 c-18 -9 -55 -40 -82 -69 -43 -48 -49 -52 -52 -32 -2 13
-11 24 -21 26 -16 3 -18 -1 -13 -30 6 -38 -12 -118 -26 -118 -6 0 -5 -6 2 -15
10 -12 8 -29 -10 -87 -24 -79 -78 -201 -103 -233 -45 -56 2 96 68 220 48 90
50 95 36 95 -12 0 -70 -106 -109 -202 -37 -90 -41 -132 -12 -150 11 -7 20 -21
20 -31 0 -11 15 -34 34 -53 44 -44 93 -46 157 -6 79 51 126 120 136 202 8 69
-3 115 -38 155 l-30 34 38 35 c72 65 124 207 91 247 -20 26 -50 30 -86 12z
m66 -35 c7 -60 -77 -207 -128 -223 -27 -8 -25 -21 6 -48 39 -33 54 -70 54
-129 0 -61 -24 -119 -69 -170 -55 -62 -157 -98 -189 -66 -51 51 46 235 151
287 28 14 35 21 21 21 -21 0 -113 -54 -126 -74 -4 -6 -8 -7 -8 -1 0 14 19 42
21 30 1 -20 48 126 55 173 9 61 17 75 78 141 53 56 104 93 121 88 6 -2 11 -15
13 -29z"/>
<path d="M1999 952 c-3 -8 -22 -14 -46 -15 -22 -1 -39 -6 -36 -10 3 -5 -11 -5
-31 -2 -25 5 -40 3 -50 -8 -16 -15 -91 -31 -107 -22 -5 4 -9 1 -9 -5 0 -6 -5
-8 -10 -5 -6 4 -32 1 -58 -6 -47 -12 -48 -11 -79 20 -24 24 -40 31 -69 31
-121 0 -292 -175 -258 -264 10 -27 21 -18 28 23 8 52 97 150 168 185 58 29 76
31 113 14 30 -14 33 -28 5 -28 -17 0 -73 -23 -88 -35 -1 -1 0 -10 4 -19 8 -20
33 -20 58 -1 21 16 56 20 56 8 0 -35 -98 -140 -245 -263 -107 -89 -145 -133
-138 -159 7 -26 15 -26 39 0 26 29 64 47 123 60 41 9 56 8 81 -4 24 -13 30
-13 30 -2 0 25 -31 46 -59 41 -14 -3 -44 -8 -66 -12 l-40 -6 40 33 c77 64 198
184 221 221 13 20 26 48 30 62 3 14 10 26 16 26 19 0 57 -50 68 -90 18 -68 10
-221 -18 -319 -13 -47 -25 -97 -26 -110 -1 -32 20 -39 29 -9 55 192 158 510
187 579 21 50 16 48 143 64 81 11 179 15 172 8 -5 -4 -38 -16 -75 -25 l-67
-17 82 3 c85 3 113 14 113 47 0 16 -7 17 -67 13 -38 -2 -87 -7 -110 -9 -27 -3
-43 0 -46 8 -3 9 -5 9 -8 -1z m-200 -163 c-24 -66 -37 -120 -34 -133 5 -17 4
-18 -5 -6 -9 12 -10 9 -5 -13 4 -20 2 -27 -6 -22 -8 5 -9 1 -4 -15 5 -16 4
-20 -4 -15 -8 4 -10 -1 -7 -17 3 -12 -1 -36 -9 -53 -12 -25 -14 -26 -8 -5 11
42 7 166 -7 215 -13 46 -57 95 -86 95 -8 0 -14 4 -14 8 0 7 188 67 221 71 4 1
-11 -49 -32 -110z m-320 -145 c-51 -54 -199 -177 -205 -172 -2 3 19 23 48 46
29 22 82 67 118 101 73 67 92 80 39 25z"/>
</g>
</svg>
